<?xml version="1.0"?>
<svg xmlns="http://www.w3.org/2000/svg" xmlns:xlink="http://www.w3.org/1999/xlink" xmlns:svgjs="http://svgjs.com/svgjs" version="1.1" width="512" height="512" x="0" y="0" viewBox="0 0 512.002 512.002" style="enable-background:new 0 0 512 512" xml:space="preserve" class=""><g>
<path xmlns="http://www.w3.org/2000/svg" style="" d="M504.123,317.75c-0.359,8.341-1.774,16.562-4.182,24.471c-2.409,7.909-5.824,15.531-10.174,22.638  l-31.853,52.07c-11.936,19.51-33.375,31.182-56.228,30.607l-29.325-0.731c-19.929-0.503-37.629-12.811-45.035-31.314l-11.708-29.289  c-2.696-6.735-11.505-8.329-16.382-2.972l-6.939,7.598c-4.206,4.602-11.684,3.775-14.776-1.642l-10.33-18.072  c-10.51-18.395-32.572-26.784-52.657-20.013l-58.673,19.797c-6.375,2.157-12.655,4.65-18.779,7.466l-51.303,23.62  c-11.181,5.141-24.004,5.393-35.388,0.683c-6.567-2.72-10.414-9.036-10.414-15.603c0-2.936,0.767-5.92,2.409-8.652l1.51-2.529  c4.398-7.322,5.045-16.322,1.726-24.207l-34.43-81.85c-8.94-21.259,0.623-45.778,21.595-55.378l65.18-29.852l1.246-1.558  l15.112-18.827l13.65-16.993l9.815-12.224l17.952-22.362l1.019-1.27c6.867-8.556,18.827-11.073,28.558-6.004  c3.511,1.822,7.334,2.72,11.133,2.72c4.182,0,8.329-1.079,12.02-3.2c1.186-0.683,2.337-1.462,3.415-2.361l37.653-31.254  c5.093-4.218,12.056-5.393,18.239-3.068l20.96,7.861c5.441,2.037,9.323,6.363,11.013,11.445c1.426,4.278,1.306,9.096-0.743,13.542  c-0.971,2.109-1.522,4.326-1.654,6.543c-0.036,0.395-0.048,0.791-0.048,1.186c0,5.944,2.888,11.72,8.077,15.244l3.499,2.385  l4.674,3.164l19.09,12.967c12.799,8.688,30.355,2.792,35.305-11.864l22.362-66.223l9.072,46.378  c1.15,5.884,6.807,9.767,12.727,8.724c0.647-0.12,1.294-0.168,1.929-0.168c5.081,0,9.623,3.535,10.738,8.664l12.607,57.798  l49.529,72.035C498.994,275.447,505.034,296.455,504.123,317.75z" fill="#195595" data-original="#2c8cf4"/>
<g xmlns="http://www.w3.org/2000/svg">
	<path style="" d="M470.986,272.56h-2.535v-2.535c0-4.302-3.487-7.79-7.79-7.79s-7.79,3.487-7.79,7.79v2.535h-2.533   c-4.302,0-7.79,3.487-7.79,7.79s3.487,7.79,7.79,7.79h2.533v2.535c0,4.302,3.487,7.79,7.79,7.79s7.79-3.487,7.79-7.79v-2.535h2.535   c4.302,0,7.79-3.487,7.79-7.79S475.288,272.56,470.986,272.56z" fill="#ffffff" data-original="#ffffff"/>
	<path style="" d="M364.625,272.56h-2.535v-2.535c0-4.302-3.487-7.79-7.79-7.79s-7.79,3.487-7.79,7.79v2.535h-2.535   c-4.302,0-7.79,3.487-7.79,7.79s3.487,7.79,7.79,7.79h2.535v2.535c0,4.302,3.487,7.79,7.79,7.79s7.79-3.487,7.79-7.79v-2.535h2.535   c4.302,0,7.79-3.487,7.79-7.79S368.927,272.56,364.625,272.56z" fill="#ffffff" data-original="#ffffff"/>
	<path style="" d="M390.252,222.964c4.302,0,7.79-3.487,7.79-7.79v-2.535h2.535c4.302,0,7.79-3.487,7.79-7.79   s-3.487-7.79-7.79-7.79h-2.535v-2.535c0-4.302-3.487-7.79-7.79-7.79s-7.79,3.487-7.79,7.79v2.535h-2.535   c-4.302,0-7.79,3.487-7.79,7.79s3.487,7.79,7.79,7.79h2.535v2.535C382.463,219.477,385.95,222.964,390.252,222.964z" fill="#ffffff" data-original="#ffffff"/>
	<path style="" d="M412.56,355.249h-2.535v-2.535c0-4.302-3.487-7.79-7.79-7.79s-7.79,3.487-7.79,7.79v2.535h-2.535   c-4.302,0-7.79,3.487-7.79,7.79s3.487,7.79,7.79,7.79h2.535v2.535c0,4.302,3.487,7.79,7.79,7.79s7.79-3.487,7.79-7.79v-2.535h2.535   c4.302,0,7.79-3.487,7.79-7.79S416.863,355.249,412.56,355.249z" fill="#ffffff" data-original="#ffffff"/>
	<path style="" d="M186.065,318.099h-2.535v-2.535c0-4.302-3.487-7.79-7.79-7.79c-4.302,0-7.79,3.487-7.79,7.79v2.535   h-2.535c-4.302,0-7.79,3.487-7.79,7.79s3.487,7.79,7.79,7.79h2.535v2.535c0,4.302,3.487,7.79,7.79,7.79   c4.302,0,7.79-3.487,7.79-7.79v-2.535h2.535c4.302,0,7.79-3.487,7.79-7.79S190.367,318.099,186.065,318.099z" fill="#ffffff" data-original="#ffffff"/>
</g>
<path xmlns="http://www.w3.org/2000/svg" d="M403.281,455.345c-0.597,0-1.194-0.007-1.792-0.023l-29.323-0.731c-23.064-0.582-43.503-14.794-52.072-36.207  l-11.709-29.291c-0.346-0.864-1.023-1.156-1.53-1.247c-0.506-0.091-1.236-0.055-1.86,0.628l-6.946,7.606  c-3.653,3.997-9.043,6.026-14.424,5.424c-5.377-0.599-10.189-3.761-12.87-8.457l-10.327-18.068  c-8.642-15.125-26.897-22.062-43.406-16.497l-58.671,19.797c-6.125,2.072-12.188,4.482-18.014,7.163  c-3.906,1.798-8.535,0.086-10.331-3.822c-1.798-3.908-0.086-8.534,3.822-10.331c6.318-2.906,12.892-5.52,19.537-7.768l58.679-19.8  c23.545-7.938,49.586,1.957,61.911,23.529l10.329,18.071c0.294,0.515,0.741,0.665,1.065,0.701c0.325,0.036,0.799-0.012,1.198-0.449  l6.936-7.595c4.1-4.502,10.143-6.547,16.143-5.461c6.01,1.087,10.952,5.121,13.222,10.792L334.56,412.6  c6.253,15.622,21.17,25.993,38,26.419l29.322,0.731c20.005,0.513,38.936-9.798,49.389-26.885l31.853-52.07  c3.987-6.514,7.139-13.526,9.368-20.842c2.225-7.309,3.521-14.891,3.85-22.536c0.659-15.401-2.663-30.821-9.607-44.592  c-1.937-3.841-0.393-8.525,3.448-10.463c3.838-1.935,8.525-0.394,10.462,3.448c8.141,16.142,12.034,34.219,11.261,52.275  c-0.386,8.958-1.904,17.842-4.513,26.408c-2.614,8.578-6.308,16.799-10.982,24.435l-31.852,52.068  C451.523,442.3,428.167,455.344,403.281,455.345z" fill="#000000" data-original="#000000" style="" class=""/>
<g xmlns="http://www.w3.org/2000/svg">
	<polygon style="" points="163.529,160.737 163.529,175.249 117.115,175.249 109.421,170.324 114.323,164.212    114.335,164.212 127.973,147.219 132.886,141.107 163.517,160.737  " fill="#bf2a02" data-original="#f95428" class=""/>
	<polygon style="" points="313.556,256.872 313.556,274.896 272.631,274.896 200.679,228.793 200.679,212.399    244.145,212.399  " fill="#bf2a02" data-original="#f95428" class=""/>
	<path style="" d="M313.556,123.407v9.252l-66.475,42.591h-46.402v-14.512l87.039-55.773h9.995   c-0.012,0.024-0.012,0.048-0.012,0.06c-0.06,0.3-0.12,0.599-0.168,0.899c-0.048,0.276-0.084,0.563-0.108,0.839   c-0.036,0.276-0.06,0.551-0.072,0.827c-0.036,0.395-0.048,0.791-0.048,1.186c0,5.944,2.888,11.72,8.077,15.244l3.499,2.385h0.012   L313.556,123.407z" fill="#bf2a02" data-original="#f95428" class=""/>
	<path style="" d="M42.851,209.835v2.565h77.2h43.478v16.394v46.102h7.79h21.571h7.79v-46.102v-16.394h43.466h69.411   v-7.79v-21.571v-7.79h-66.475h-46.402v-14.512v-53.029v-2.744h-16.166c-0.012,0-0.012,0-0.012,0h-19.618h-0.012h-1.342v0.695   v55.078v14.512h-46.414h-11.648l-1.63,2.025c-3.943,4.853-8.964,8.736-14.644,11.349L54.272,204.61L42.851,209.835z" fill="#bf2a02" data-original="#f95428" class=""/>
	<polygon style="" points="163.529,212.399 163.529,228.793 163.517,228.793 91.566,274.896 23.21,274.896    120.052,212.399  " fill="#bf2a02" data-original="#f95428" class=""/>
</g>
<g xmlns="http://www.w3.org/2000/svg">
	<path style="" d="M313.556,220.189h-42.818l42.818,27.443v18.491l-71.688-45.934h-33.399v4.35l78.59,50.356H258.19   l-49.721-31.853v31.853H192.89v-62.496c0-4.302,3.487-7.79,7.79-7.79h112.876V220.189z" fill="#ffffff" data-original="#ffffff"/>
	<path style="" d="M171.319,212.399v62.496H155.74V243.03l-49.733,31.865H77.137l78.602-50.368v-4.338h-33.411   L37.53,274.896H15.216l-1.881-2.924l80.124-51.782H31.934l10.917-7.79v-2.565l11.421-5.225h109.257   C167.831,204.61,171.319,208.097,171.319,212.399z" fill="#ffffff" data-original="#ffffff"/>
	<path style="" d="M313.556,123.407v18.491l-39.882,25.562h39.882v15.579H200.679c-4.302,0-7.79-3.487-7.79-7.79   v-62.496l-21.571-5.992v68.488c0,4.302-3.487,7.79-7.79,7.79H99.212l4.626-5.764l1.63-2.025l3.955-4.925l4.901-6.112h0.012   l5.057,3.248h36.347v-2.457l-27.767-17.784l4.913-6.112l4.901-6.112L155.74,146.5v-33.866l1.019-1.27   c0.24-0.3,0.491-0.599,0.743-0.875c0.156-0.18,0.324-0.36,0.491-0.527c0.395-0.431,0.803-0.839,1.246-1.234   c0.156-0.144,0.312-0.276,0.467-0.407c0.264-0.228,0.527-0.443,0.803-0.659c0.336-0.276,0.683-0.527,1.031-0.767   c0.647-0.455,1.306-0.863,1.989-1.234c0.096-0.06,0.204-0.12,0.324-0.18c0.3-0.168,0.599-0.312,0.899-0.455   c0.036-0.024,0.072-0.036,0.12-0.06h0.012c0.767-0.371,1.546-0.683,2.349-0.959c0.719-0.252,1.45-0.455,2.181-0.623   c2.133-0.515,4.338-0.707,6.543-0.587c0.431,0.024,0.851,0.06,1.27,0.108c0.288,0.024,0.587,0.072,0.875,0.12   c0.168,0.012,0.348,0.036,0.515,0.072c0.371,0.072,0.743,0.144,1.126,0.228c0.36,0.084,0.707,0.168,1.067,0.264   c0.084,0.024,0.18,0.048,0.276,0.084c0.372,0.108,0.731,0.216,1.091,0.348c0.024,0,0.036,0,0.06,0.024   c0.348,0.12,0.695,0.252,1.043,0.383c0.084,0.036,0.18,0.072,0.264,0.108c0.324,0.132,0.647,0.276,0.959,0.431c0,0,0,0,0.012,0   c0.264,0.12,0.539,0.252,0.803,0.395c3.511,1.822,7.334,2.72,11.133,2.72c0.383,0,0.755-0.012,1.126-0.024   c0.336-0.012,0.671-0.036,1.007-0.072c0.216-0.012,0.431-0.036,0.635-0.06c0.3-0.036,0.599-0.072,0.899-0.12   c0.192-0.036,0.383-0.06,0.563-0.096c0.144-0.024,0.288-0.048,0.431-0.084c0.24-0.036,0.467-0.084,0.695-0.144   c1.043-0.24,2.073-0.539,3.08-0.923c0.156-0.048,0.312-0.108,0.455-0.168c0.407-0.168,0.815-0.336,1.222-0.527   c0.407-0.18,0.815-0.383,1.21-0.599c0.096-0.048,0.192-0.096,0.288-0.156c0.132-0.072,0.276-0.144,0.407-0.228v41.608   l91.281-58.985c0.072,0.228,0.156,0.467,0.216,0.707c0.144,0.467,0.264,0.947,0.36,1.438c0.096,0.479,0.18,0.971,0.24,1.462   c0.132,1.079,0.168,2.157,0.108,3.248c-0.024,0.36-0.048,0.707-0.096,1.067c-0.024,0.24-0.06,0.467-0.096,0.707   c0,0.096-0.024,0.192-0.036,0.288c-0.096,0.527-0.204,1.055-0.348,1.582c-0.264,1.031-0.635,2.049-1.091,3.044   c-0.144,0.324-0.288,0.635-0.407,0.959c-0.096,0.24-0.18,0.479-0.264,0.719c-0.072,0.18-0.132,0.371-0.18,0.551   c-0.084,0.252-0.156,0.503-0.216,0.767c-0.096,0.312-0.168,0.611-0.228,0.923c-0.012,0.024-0.012,0.048-0.012,0.06   c-0.072,0.3-0.12,0.599-0.168,0.899c-0.048,0.276-0.084,0.563-0.108,0.839c-0.036,0.276-0.06,0.551-0.072,0.827l-88.885,57.403   v2.469h36.335l64.078-41.057h0.012L313.556,123.407z" fill="#ffffff" data-original="#ffffff"/>
</g>
<path xmlns="http://www.w3.org/2000/svg" d="M67.294,413.803c-6.764,0-13.531-1.31-19.884-3.938c-9.25-3.832-15.226-12.782-15.226-22.801  c0-4.451,1.218-8.831,3.522-12.665l1.498-2.509c3.123-5.199,3.581-11.62,1.234-17.192L4.01,272.85  c-10.639-25.299,0.576-54.062,25.532-65.484l10.062-4.613c0.086-0.04,0.174-0.078,0.261-0.114l46.084-21.099  c4.575-2.104,8.675-5.28,11.841-9.177l10.455-13.024c0.079-0.099,0.161-0.197,0.244-0.29l42.191-52.558  c0.318-0.398,0.66-0.805,1.004-1.185c0.217-0.247,0.445-0.493,0.675-0.726c0.543-0.585,1.083-1.118,1.647-1.623  c0.212-0.194,0.424-0.376,0.636-0.556c0.331-0.286,0.69-0.588,1.061-0.872c0.424-0.342,0.877-0.677,1.414-1.047  c0.779-0.549,1.625-1.077,2.53-1.577c0.173-0.101,0.355-0.203,0.549-0.304c0.358-0.195,0.714-0.371,1.073-0.545  c0.089-0.046,0.177-0.089,0.264-0.129c0.08-0.038,0.161-0.074,0.242-0.11c0.923-0.434,1.884-0.82,2.926-1.178  c1.067-0.362,2.036-0.638,2.994-0.853c2.738-0.662,5.701-0.929,8.682-0.767c0.561,0.031,1.098,0.077,1.633,0.135  c0.356,0.034,0.723,0.084,1.081,0.14c0.356,0.038,0.709,0.093,1.055,0.164c0.416,0.08,0.833,0.162,1.262,0.256  c0.54,0.125,0.968,0.229,1.409,0.348c0.046,0.012,0.091,0.025,0.137,0.037c0.147,0.041,0.301,0.086,0.459,0.138  c0.488,0.144,0.961,0.292,1.437,0.466v0.001c0.024,0.008,0.047,0.017,0.07,0.025c0.374,0.132,0.749,0.272,1.123,0.415  c0.104,0.04,0.21,0.083,0.313,0.127l0.121,0.05v-0.001c0.399,0.162,0.798,0.337,1.188,0.524c0.024,0.011,0.048,0.022,0.072,0.031  c0.4,0.182,0.817,0.383,1.221,0.6c2.313,1.189,4.901,1.818,7.491,1.818c0.298,0,0.587-0.011,0.875-0.02  c0.125-0.005,0.276-0.016,0.428-0.031c0.132-0.014,0.265-0.025,0.398-0.032l0.155-0.018c0.176-0.022,0.35-0.041,0.523-0.066  c0.111-0.019,0.223-0.037,0.333-0.055c0.083-0.017,0.155-0.028,0.238-0.042c-0.01,0.002-0.066,0.016-0.131,0.031  c0.203-0.049,0.409-0.091,0.615-0.123c0.06-0.016,0.119-0.03,0.179-0.043c0.762-0.175,1.432-0.375,2.049-0.61  c0.102-0.038,0.206-0.076,0.309-0.11c0.291-0.12,0.558-0.228,0.826-0.354c0.058-0.026,0.115-0.053,0.174-0.079  c0.211-0.092,0.421-0.2,0.626-0.312c0.055-0.03,0.111-0.06,0.168-0.089c0.037-0.02,0.074-0.042,0.111-0.062  c0.018-0.011,0.105-0.058,0.151-0.081c0.046-0.026,0.09-0.053,0.135-0.079c0.775-0.442,1.547-0.978,2.358-1.637l37.592-31.204  c7.236-5.993,17.179-7.665,25.955-4.366l20.954,7.859c7.443,2.786,13.157,8.721,15.67,16.279c0.014,0.043,0.028,0.086,0.042,0.129  l0.036,0.114c0.084,0.26,0.167,0.525,0.24,0.792c0.191,0.64,0.355,1.3,0.489,1.969c0.164,0.748,0.284,1.486,0.358,2.2  c0.188,1.579,0.235,3.133,0.138,4.616c-0.032,0.49-0.071,0.968-0.131,1.458c-0.026,0.241-0.059,0.477-0.093,0.717  c-0.023,0.212-0.05,0.394-0.076,0.544c-0.011,0.071-0.023,0.141-0.035,0.212c-0.147,0.823-0.302,1.522-0.482,2.192  c-0.369,1.427-0.887,2.873-1.539,4.297l-0.04,0.091c-0.054,0.119-0.108,0.234-0.155,0.351c-0.005,0.012-0.049,0.127-0.054,0.139  c-0.058,0.145-0.107,0.29-0.157,0.435c-0.012,0.034-0.024,0.066-0.035,0.099c-0.034,0.116-0.069,0.23-0.107,0.344  c-0.044,0.193-0.101,0.398-0.159,0.586c-0.017,0.087-0.035,0.177-0.056,0.266c-0.036,0.185-0.074,0.369-0.104,0.554  c-0.026,0.157-0.032,0.213-0.037,0.266c-0.011,0.12-0.024,0.238-0.038,0.357c-0.006,0.047-0.01,0.093-0.012,0.14  c-0.006,0.127-0.014,0.254-0.025,0.381c-0.014,0.158-0.016,0.316-0.016,0.475c0,3.528,1.742,6.816,4.663,8.8l3.244,2.21  c0.09,0.056,0.179,0.114,0.267,0.174l23.754,16.133c4.069,2.762,9.079,3.448,13.741,1.88c4.659-1.566,8.233-5.136,9.806-9.793  l22.362-66.223c1.13-3.346,4.36-5.511,7.896-5.28c3.523,0.234,6.451,2.81,7.128,6.277l9.072,46.378  c0.334,1.709,2.01,2.852,3.732,2.548c0.999-0.186,2.125-0.286,3.279-0.286c8.769,0,16.487,6.224,18.35,14.8l6.795,31.126  c3.636,16.7,10.392,32.307,20.079,46.393l23.478,34.142c2.436,3.545,1.539,8.395-2.006,10.832c-3.544,2.438-8.395,1.54-10.832-2.005  l-23.476-34.142c-10.837-15.759-18.395-33.222-22.464-51.902l-6.795-31.131c-0.32-1.473-1.633-2.536-3.127-2.536  c-0.254,0-0.417,0.02-0.509,0.037c-10.092,1.778-19.841-4.906-21.792-14.889l-3.438-17.573l-12.971,38.416  c-3.143,9.309-10.287,16.444-19.6,19.576c-9.319,3.134-19.326,1.762-27.459-3.758l-23.485-15.949  c-0.098-0.061-0.195-0.125-0.291-0.189l-3.499-2.385c-7.184-4.877-11.479-12.986-11.479-21.68c0-0.612,0.022-1.173,0.065-1.708  c0.02-0.38,0.053-0.761,0.098-1.142c0.043-0.443,0.103-0.9,0.18-1.34c0.046-0.291,0.123-0.688,0.201-1.085h0.001  c0.006-0.031,0.012-0.062,0.019-0.092c0.093-0.478,0.204-0.934,0.331-1.379c0.085-0.343,0.18-0.677,0.286-1.01  c0.098-0.34,0.207-0.671,0.326-0.987c0.097-0.276,0.197-0.551,0.306-0.827c0.151-0.4,0.322-0.792,0.5-1.189l0.061-0.137  c0.309-0.677,0.52-1.26,0.659-1.806c0.011-0.041,0.022-0.083,0.032-0.123c0.066-0.241,0.117-0.483,0.162-0.725  c0.011-0.086,0.023-0.171,0.035-0.258l0.047-0.32c0.01-0.091,0.018-0.162,0.03-0.253c0.024-0.182,0.031-0.36,0.043-0.543  c0.036-0.544,0.013-1.146-0.066-1.792c-0.008-0.064-0.016-0.128-0.022-0.193c-0.011-0.099-0.032-0.268-0.087-0.513  c-0.017-0.071-0.031-0.141-0.046-0.213c-0.042-0.218-0.095-0.431-0.158-0.64c-0.031-0.102-0.061-0.205-0.089-0.309l-0.081-0.258  c-1.025-3.058-3.336-5.455-6.345-6.582l-20.963-7.864c-3.566-1.34-7.6-0.659-10.536,1.774l-37.647,31.248  c-1.508,1.226-2.938,2.217-4.426,3.073c-0.182,0.11-0.37,0.215-0.555,0.314c-0.163,0.093-0.326,0.181-0.49,0.265  c-0.538,0.29-1.074,0.554-1.593,0.786c-0.497,0.231-0.993,0.439-1.49,0.642c-0.252,0.105-0.539,0.215-0.835,0.314  c-1.206,0.449-2.457,0.823-3.813,1.14c-0.361,0.091-0.717,0.168-1.079,0.23c-0.175,0.036-0.349,0.068-0.523,0.098  c-0.149,0.028-0.301,0.053-0.455,0.078c-0.068,0.012-0.186,0.032-0.253,0.043c-0.394,0.064-0.787,0.113-1.18,0.159  c-0.318,0.037-0.624,0.07-0.929,0.092c-0.461,0.046-0.923,0.077-1.383,0.093c-0.482,0.016-0.936,0.029-1.406,0.029  c-5.096,0-10.186-1.244-14.72-3.595c-0.048-0.025-0.096-0.05-0.143-0.076c-0.035-0.019-0.071-0.037-0.105-0.054  c-0.155-0.065-0.307-0.135-0.458-0.21c-0.135-0.067-0.276-0.128-0.417-0.186c-0.048-0.019-0.095-0.04-0.141-0.06l-0.006-0.002  c-0.254-0.097-0.509-0.193-0.763-0.282c-0.09-0.031-0.179-0.064-0.267-0.097c-0.168-0.058-0.337-0.105-0.51-0.156  c-0.072-0.02-0.144-0.043-0.216-0.066c-0.242-0.064-0.479-0.12-0.724-0.176c-0.191-0.041-0.446-0.091-0.711-0.141  c-0.15-0.016-0.3-0.037-0.448-0.061c-0.096-0.016-0.194-0.034-0.291-0.046c-0.079-0.007-0.109-0.01-0.188-0.019  c-0.27-0.031-0.54-0.054-0.817-0.07c-1.464-0.08-2.906,0.049-4.282,0.381c-0.53,0.121-1.001,0.256-1.511,0.429  c-0.525,0.18-1.009,0.376-1.452,0.591c-0.074,0.036-0.149,0.071-0.224,0.104c-0.137,0.065-0.268,0.126-0.399,0.199  c-0.06,0.034-0.12,0.066-0.181,0.098c-0.074,0.043-0.149,0.085-0.223,0.126c-0.434,0.236-0.836,0.485-1.23,0.762  c-0.231,0.161-0.404,0.28-0.568,0.415c-0.102,0.084-0.206,0.165-0.313,0.244c-0.113,0.086-0.225,0.191-0.342,0.29l-0.274,0.235  c-0.02,0.019-0.084,0.077-0.104,0.095c-0.225,0.2-0.449,0.423-0.687,0.682c-0.078,0.085-0.157,0.168-0.238,0.249l-0.113,0.121  c-0.043,0.049-0.085,0.097-0.129,0.145c-0.139,0.152-0.277,0.319-0.409,0.484l-42.435,52.862c-0.078,0.098-0.159,0.193-0.242,0.286  L109.9,182.151c-4.686,5.768-10.715,10.44-17.458,13.543L46.101,216.91c-0.085,0.038-0.171,0.077-0.256,0.113l-9.82,4.501  c-17.259,7.9-25.015,27.787-17.661,45.276l34.43,81.85c4.266,10.134,3.433,21.812-2.228,31.238l-1.499,2.511  c-0.872,1.45-1.307,3.012-1.307,4.659c0,3.696,2.2,6.996,5.606,8.407c9.34,3.865,19.968,3.659,29.153-0.563l19.782-9.107  c3.904-1.798,8.534-0.09,10.333,3.819c1.799,3.908,0.09,8.534-3.818,10.334l-19.785,9.108  C82.166,412.219,74.732,413.803,67.294,413.803z M169.079,111.5c-0.002,0.001-0.005,0.004-0.008,0.005  C169.074,111.503,169.078,111.501,169.079,111.5z M169.097,111.489c-0.005,0.002-0.008,0.006-0.013,0.008  C169.087,111.494,169.092,111.491,169.097,111.489z M178.35,110.963c0.005,0.001,0.01,0.004,0.014,0.005  C178.359,110.967,178.354,110.965,178.35,110.963z M305.578,105.587c-0.001,0.004-0.002,0.008-0.005,0.012  C305.575,105.595,305.577,105.592,305.578,105.587z M199.239,100.062c-0.006,0.001-0.012,0.004-0.019,0.005  C199.227,100.066,199.234,100.064,199.239,100.062z M199.263,100.056c-0.005,0.001-0.01,0.002-0.014,0.004  C199.253,100.059,199.259,100.058,199.263,100.056z M203.945,98.495c-0.004,0.002-0.008,0.005-0.012,0.007  C203.936,98.5,203.94,98.497,203.945,98.495z M203.954,98.489c-0.004,0.002-0.006,0.004-0.01,0.006  C203.948,98.493,203.951,98.49,203.954,98.489z M204.295,98.302c-0.005,0.004-0.01,0.006-0.016,0.01  C204.285,98.309,204.29,98.306,204.295,98.302z M292.69,96.117c0,0.005,0,0.01,0,0.014C292.69,96.127,292.69,96.122,292.69,96.117z   M292.69,96.107v0.001C292.69,96.108,292.69,96.108,292.69,96.107z" fill="#000000" data-original="#000000" style="" class=""/>
<circle xmlns="http://www.w3.org/2000/svg" style="" cx="428.605" cy="313.907" r="7.79" fill="#ffffff" data-original="#ffffff"/>
<g xmlns="http://www.w3.org/2000/svg">
</g>
<g xmlns="http://www.w3.org/2000/svg">
</g>
<g xmlns="http://www.w3.org/2000/svg">
</g>
<g xmlns="http://www.w3.org/2000/svg">
</g>
<g xmlns="http://www.w3.org/2000/svg">
</g>
<g xmlns="http://www.w3.org/2000/svg">
</g>
<g xmlns="http://www.w3.org/2000/svg">
</g>
<g xmlns="http://www.w3.org/2000/svg">
</g>
<g xmlns="http://www.w3.org/2000/svg">
</g>
<g xmlns="http://www.w3.org/2000/svg">
</g>
<g xmlns="http://www.w3.org/2000/svg">
</g>
<g xmlns="http://www.w3.org/2000/svg">
</g>
<g xmlns="http://www.w3.org/2000/svg">
</g>
<g xmlns="http://www.w3.org/2000/svg">
</g>
<g xmlns="http://www.w3.org/2000/svg">
</g>
</g></svg>
