<svg id="Layer_1" enable-background="new 0 0 511.984 511.984" height="512" viewBox="0 0 511.984 511.984" width="512" xmlns="http://www.w3.org/2000/svg"><g><g clip-rule="evenodd" fill-rule="evenodd"><path d="m175.74 469.856v-377.017c-4.627-2.396-8.907-6.341-12.051-12.398-8.352-16.088-38.073-19.554-33.532-1.689 3.66 14.396 14.141 42.869 3.169 44.601.214 2.704-11.574 2.76-12.284-.671-4.219-1.46-24.483 13.748-34.006-13.765-42.204-8.732-12.444 17.656-42.843-3.031-7.989-5.436-44.048 6.035-21.792 15.569 14.736 6.313-23.072 19.918 3.031 32.873 12.194 6.052 9.774-1.032 27.945 9.3 15.047 8.555 59.035 36.878 42.913 59.522-.701.985 4.956 26.456 19.224 30.559 11.194 3.219 4.167 32.353 12.423 39.396 4.411 3.763-6.854 15.178-7.495 28.015-2.428 48.623-52.089 98.988-39.254 104.186 23.228 9.406 5.36 18.262 17.991 25.554 4.254 2.456 10.396 5.023 19.366 7.418 4.375 1.168 5.206 6.755 21.26 6.755 6.894 0 7.021 9.799 35.935 4.823z" fill="#60a4ff"/><path d="m175.74 92.839v377.017c1.422-.245 2.913-.525 4.478-.844 17.313-3.529 3.931 15.527 31.647 8.837 16.523-3.988.686 23.817 25.84 18.692 8.393-1.71 12.603 11.571 26.187 1.897 3.396-2.419 11.099 1.248 13.625 3.493-6.464-30.159 3.582-46.905 33.937-54.71 21.061-5.415 16.236 3.178 24.776 7.146v-403.522c-1.91-2.357-4.396-4.784-7.832-7.218-13.61-9.642-19.191-22.312-27.065-33.626-60.138 14.433-17.958 9.915-39.87 40.692-2.246 3.154 5.874 10.14-21.676 20.635-16.796 6.399-32.579-3.81-34.33 17.211-.446 5.342-16.495 11.147-29.717 4.3z" fill="#fff"/><path d="m336.23 50.845v403.522c3.82 1.775 10.314 2.625 22.994.881 20.207-2.778 26.881 19.827 44.215 20.741 9.309.491 23.105-6.505 25.347-17.503 2.383-11.692 38.028-4.158 41.293-30.698 2.166-17.607 13.359-12.174-12.747-14.505-.47-.042-27.421-15.659-6.824-28.546 11.096-6.943-37.136-35.989-3.84-34.677 4.495.177 14.05-10.821-1.689-21.653-10.653-7.332 9.98-10.508 6.755-18.021-7.7-17.937 5.218-22.711-21.916-29.98-13.271-3.555-13.926-31.36 6.492-33.599 13.695-1.502 20.621-15.641 28.911-17.318 15.483-3.133 4.797-53.602 22.532-69.099 24.196-21.143-5.131-26.253-33.867-32.109-11.054-2.253-7.874-10.716-24.29-14.574-14.904-3.502-5.473-13.702-31.3-16.193-28.224-2.722-13.218-24.359-27.737-24.359-29.89 0-24.544-10.234-34.329-22.31z" fill="#ff5a58"/></g><g><path d="m506.156 142.479c-3.863-14.581-24.127-18.691-47.59-23.451l-2.684-.545c-1.804-.367-2.097-.693-4.004-2.81-3.188-3.537-8.004-8.882-19.996-11.7-2.7-.634-2.95-.966-4.58-3.124-4.542-6.015-10.105-11.558-28.047-13.289-9.198-.887-9.659-2.878-10.892-8.201-1.026-4.432-3.752-16.204-17.806-16.204-10.073 0-14.322-1.28-16.112-2.353-1.366-.819-2.056-2.029-3.837-5.558-2.694-5.343-6.386-12.66-16.431-19.776-8.712-6.172-13.687-14.08-18.953-22.452-1.798-2.859-3.657-5.815-5.685-8.727-2.353-3.38-6.538-4.972-10.542-4.012-27.244 6.539-35.788 9.462-39.918 16.229-3.107 5.093-1.908 10.005-1.191 12.939.807 3.304 1.641 6.72-4.574 15.449-2.414 3.391-2.349 6.956-2.318 8.669.003.143.006.314.007.462-.633.78-3.577 3.691-14.777 7.958-4.237 1.614-8.813 1.813-13.239 2.005-9.135.397-24.137 1.051-27.145 20.708-2.101.893-6.286 1.813-10.94.861-5.413-1.108-9.563-4.379-12.338-9.723-8.099-15.598-28.771-22.217-41.15-17.502-9.286 3.537-13.584 12.52-10.948 22.886.652 2.566 1.485 5.472 2.367 8.548 1.729 6.029 5.541 19.323 5.42 24.969-.219.129-.432.266-.64.411-.952-.831-2.067-1.485-3.3-1.912-4.028-1.394-7.728-.281-11.304.796-7.955 2.396-12.337 3.712-16.522-8.381-1.153-3.33-3.974-5.808-7.424-6.521-16.266-3.365-26.329-2.583-32.577 2.875-1.577-.982-3.729-2.383-6.666-4.381-8.842-6.016-25.729-2.341-34.523 2.624-9.169 5.176-10.219 11.802-10.027 15.29.265 4.841 2.847 8.919 7.693 12.176-3.716 4.695-8.436 11.41-6.585 19.806 1.418 6.437 6.196 11.595 14.609 15.77 6.52 3.236 10.303 3.713 14.233 3.972 2.507.165 4.874.321 13.214 5.063 18.603 10.577 38.526 26.47 41.104 38.13.584 2.643.167 4.706-1.395 6.899-1.589 2.232-3.765 5.289.89 18.615 2.877 8.237 9.547 22.417 22.352 26.918.921 2.434 1.364 8.376 1.641 12.075.592 7.936 1.2 16.092 5.148 22.045-.417.934-.918 1.985-1.34 2.872-2.52 5.289-5.97 12.531-6.38 20.746-1.241 24.848-16.688 51.33-27.966 70.666-10.05 17.231-15.586 26.722-12.651 35.317 1.251 3.662 3.948 6.493 7.598 7.971 4.948 2.004 6.401 3.463 6.705 3.822.041.409.003 1.294-.025 1.959-.181 4.229-.558 13.03 10.064 19.163 5.524 3.189 12.47 5.896 21.219 8.266.186.133.423.309.615.451 4.352 3.227 10.078 6.665 23.048 6.792.275.159.626.372.911.545 7.386 4.488 16.729 8.437 42.243 3.236.255-.052.481-.092.683-.125 5.847 9.577 14.243 12.419 28.56 9.499.869 4.415 2.42 11.414 8.868 15.717 4.804 3.204 10.934 4.043 18.729 2.566.544.255 1.42.769 2.095 1.164 2.821 1.653 7.426 4.353 13.506 4.353 3.811 0 8.203-1.062 13.098-4.106 1.111.37 2.561 1.082 3.123 1.528 3.232 2.872 7.944 3.34 11.678 1.164 3.735-2.177 5.647-6.508 4.742-10.735-5.411-25.245 1.563-36.479 26.648-42.93 5.271-1.355 7.739-1.465 8.689-1.419.151.185.318.394.459.57 6.489 8.135 14.704 12.233 37.494 9.098 6.261-.859 10.137 2.198 17.017 8.134 6.243 5.387 14.014 12.091 25.309 12.687 13.727.728 31.033-8.76 35.235-23.682 1.735-.76 5.177-1.661 7.591-2.292 11.769-3.08 31.467-8.234 34.267-30.992.509-4.134 1.607-6.183 2.409-7.679.953-1.776 3.482-6.496.507-11.665-3.053-5.302-8.264-5.479-12.861-5.635-2.168-.074-5.293-.18-9.658-.524-3.282-2.163-7.166-5.875-7.606-7.731.213-.329.945-1.264 3.019-2.561 3.427-2.145 5.642-5.453 6.234-9.317 1.228-8.005-4.694-14.935-10.964-22.271-.475-.554-1.017-1.188-1.582-1.859 5.722-1.222 11.063-6.116 13.176-12.47 1.051-3.16 3.237-13.253-7.01-23.074 3.956-3.51 8.788-9.554 5.257-17.781-1.872-4.36-2.07-7.469-2.28-10.76-.271-4.262-.645-10.099-5.6-15.204-3.917-4.035-9.896-6.854-20.638-9.732-.721-.193-2.326-2.702-2.038-6.479.237-3.104 1.649-6.929 7.031-7.519 11.115-1.219 18.635-7.984 24.125-12.923 1.855-1.669 4.659-4.191 5.679-4.534 14.856-3.005 16.616-20.793 18.318-37.996 1.238-12.521 2.78-28.104 8.812-33.375 3.725-3.258 15.071-13.173 11.82-25.442zm-197.193 295.056c-29.609 7.614-43.884 24.087-43.273 50.153-2.652.164-5.26.938-7.599 2.604-3.149 2.242-3.147 2.242-6.828.085-2.818-1.652-6.82-3.998-12.008-3.998-1.127 0-2.309.11-3.547.363-2.038.416-3.292.455-3.971.421-.271-.873-.542-2.255-.737-3.251-.81-4.144-2.034-10.406-7.771-14.086-3.764-2.416-8.378-2.986-13.712-1.698-5.652 1.364-8.165 1.199-8.973 1.068-.188-.285-.433-.691-.627-1.015-1.724-2.867-5.31-8.821-14.178-9.52v-132.341c0-5.523-4.478-10-10-10s-10 4.477-10 10v134.775c-9.789.782-13.035-1.186-15.381-2.612-2.261-1.374-5.678-3.451-10.556-3.451-8.021 0-9.982-1.455-11.879-2.861-1.548-1.147-3.668-2.719-6.801-3.556-7.198-1.921-12.899-4.08-16.945-6.416-.041-.024-.08-.047-.117-.069.009-.304.022-.635.034-.918.338-7.883-1.24-16.012-13.779-22.687 2.011-4.411 6.039-11.317 9.448-17.163 12.314-21.113 29.18-50.029 30.664-79.745.211-4.221 2.469-8.96 4.461-13.142 3.003-6.303 7.519-15.783-.123-22.681-1.024-1.974-1.506-8.425-1.797-12.326-.81-10.845-1.918-25.698-14.692-29.371-5.335-1.535-10.132-12.788-11.624-18.766 3.064-5.904 3.902-12.465 2.414-19.198-5.099-23.067-37.188-43.49-50.746-51.2-11.404-6.484-16.614-7.294-21.787-7.634-2.057-.135-3.19-.21-6.656-1.93-1.803-.895-2.877-1.629-3.49-2.124.738-1.236 2.156-3.003 3.091-4.167 3.313-4.125 7.848-9.776 6.067-16.904-.507-2.027-1.656-4.562-4.202-6.817 2.999-.737 6.11-1.128 7.812-.805 11.216 7.613 16.475 10.564 22.475 9.135 4.821-1.148 7.061-4.735 8.002-6.409 1.129-.215 4.024-.473 10.216.487 10.944 23.155 30.804 17.841 38.366 15.581 3.91 1.907 8.847 2.375 13.362 1.731 3.604-.514 6.178-1.78 7.979-3.375 2.287-1.192 4.229-2.968 5.668-5.225 5.726-8.982 2.3-23.167-3.165-42.226-.785-2.739-1.529-5.335-2.096-7.519 3.862-.19 11.88 2.593 14.852 8.315 2.966 5.714 6.742 10.038 10.926 13.235v138.038c0 5.523 4.478 10 10 10s10-4.477 10-10v-130.518c3.903.314 7.68.058 11.075-.623 10.846-2.174 17.976-8.233 18.606-15.81.264-3.166.854-4.314 1.012-4.57 1.075-.554 4.882-.719 7.423-.83 5.449-.237 12.231-.532 19.489-3.297 19.132-7.288 27.267-14.943 27.64-26.182 7.907-11.919 8.23-20.397 6.81-27.638 4.424-1.702 12.682-3.878 19.063-5.469.475.749.953 1.509 1.438 2.28 5.794 9.21 12.36 19.648 24.319 28.122 1.415 1.002 2.596 1.98 3.614 2.947v381.074c-4.542-.732-10.066-.122-17.266 1.729zm172.21-284.675c-11.995 10.48-13.886 29.599-15.555 46.466-.693 7.011-1.721 17.397-3.525 20.63-5.6 1.493-9.838 5.306-13.944 9-4.228 3.803-8.22 7.395-12.929 7.911-13.763 1.509-23.727 11.908-24.794 25.876-.989 12.958 6.078 24.449 16.805 27.322 7.905 2.118 10.457 3.575 11.215 4.137.104.644.181 1.838.238 2.753.205 3.202.494 7.739 2.354 13.397-.12.091-.236.178-.345.26-3.347 2.518-8.947 6.733-8.795 13.941.068 3.236 1.409 7.961 7.411 12.092 2 1.376 3.14 2.55 3.75 3.37-5.528.147-13.534 1.458-16.986 8.578-4.503 9.285 2.771 17.796 9.806 26.027 1.267 1.482 3.024 3.539 4.407 5.33-8.672 7.887-7.86 16.614-6.963 20.361 1.346 5.623 5.063 11.038 11.049 16.096 5.055 4.272 9.116 6.572 12.071 6.836 1.509.135 2.897.245 4.174.335-.177.939-.334 1.934-.463 2.988-1.03 8.371-7.016 10.824-19.48 14.085-8.688 2.273-19.499 5.102-21.687 15.836-1.03 5.059-9.605 9.806-15.021 9.514-4.249-.224-7.821-3.131-13.298-7.857-7.306-6.303-17.307-14.937-32.807-12.805-5.233.719-8.975.907-11.631.848v-367.085c5.083 2.432 12.115 3.886 22.479 4.039.06.252.116.5.17.729 1.603 6.923 4.938 21.329 28.456 23.597 10.682 1.031 12.148 2.974 14.007 5.434 2.481 3.287 6.232 8.254 15.965 10.541 5.899 1.386 7.416 3.07 9.713 5.618 2.789 3.096 6.61 7.337 14.868 9.02l2.702.549c10.19 2.067 26.712 5.419 31.598 8.871-.671 1.028-2.088 2.802-5.015 5.36z"/><path d="m175.74 271.32c-5.522 0-10 4.481-10 10.004s4.478 10 10 10 10-4.477 10-10v-.008c0-5.523-4.478-9.996-10-9.996z"/></g></g></svg>