<?xml version="1.0"?>
<svg xmlns="http://www.w3.org/2000/svg" xmlns:xlink="http://www.w3.org/1999/xlink" xmlns:svgjs="http://svgjs.com/svgjs" version="1.1" width="512" height="512" x="0" y="0" viewBox="0 0 511.995 511.995" style="enable-background:new 0 0 512 512" xml:space="preserve" class=""><g><g xmlns="http://www.w3.org/2000/svg" id="XMLID_1082_"><g id="XMLID_1060_"><path id="XMLID_1143_" d="m401.658 136.423v-32.305c0-11.669-5.066-22.763-13.884-30.406l-19.333-16.755c-11.336-9.824-27.195-12.527-41.145-7.012l-61.928 24.483-18.98-29.157c-9.768-15.006-23.694-26.844-40.077-34.069-9.262-4.085-19.667 2.698-19.667 12.821v47.325c0 3.229-1.298 6.323-3.602 8.585l-13.575 13.332c-5.386 5.29-14.257 4.371-18.445-1.91-3.566-5.35-9.571-8.563-16-8.563-10.62 0-19.23 8.61-19.23 19.23v26.657l-12.792 54.486h323.465z" fill="#373a3c" data-original="#8aa8bd" style=""/><path id="XMLID_1146_" d="m61.155 350.328c2.03 12.6 10.628 23.375 22.829 28.002l43.475 16.489-5.709 61.3c-3.295 7.142-.204 15.604 6.919 18.94l15.615 7.313c6.066 2.841 13.291 1.09 17.384-4.212 4.246-5.5 11.92-6.985 17.911-3.465l28.879 16.967 13.121-8.856 15.745 4.428v14.761l21.649-10.333 7.567 4.54c6.317 3.79 13.546 5.792 20.913 5.792 13.018 0 25.249-6.235 32.895-16.771l3.128-4.31c3.871-5.333 11.176-6.824 16.826-3.433l9.938 5.963c4.943 2.966 11.145-1.012 10.51-6.741l-2.736-24.713c-.397-3.584 1.068-7.123 3.883-9.377l25.985-20.816h8.364v-25.058l-55.106-45.301v-1.108h-279.985z" fill="#f5bb47" data-original="#ffcd69" style="" class=""/><path id="XMLID_1149_" d="m341.14 293.87 72.674-34.542c4.186-1.99 9.179-1.033 12.332 2.364 4.093 4.408 11.028 4.536 15.281.283 10.431-10.43 12.831-26.448 5.915-39.477l-20.875-39.331h-323.465l-26.511 7.707c-9.363 2.722-15.803 11.3-15.803 21.051v132.657c0 1.948.164 3.868.467 5.749h279.985z" fill="#f7365c" data-original="#ff7d97" style="" class=""/></g><g id="XMLID_147_"><path id="XMLID_175_" d="m456.176 217.808-44.517-83.874v-29.816c0-14.578-6.318-28.415-17.335-37.963l-19.333-16.755c-14.204-12.312-33.89-15.664-51.371-8.755l-54.328 21.479-14.521-22.31c-10.856-16.677-26.218-29.734-44.423-37.763-7.454-3.288-15.979-2.594-22.803 1.854-6.825 4.449-10.899 11.97-10.899 20.116v47.325c0 .542-.222 1.07-.608 1.45l-13.576 13.334c-.563.554-1.204.611-1.634.571-.434-.045-1.044-.236-1.482-.895-5.434-8.15-14.525-13.017-24.32-13.017-16.117 0-29.229 13.112-29.229 29.229v25.499l-11.193 47.672-20.904 6.08c-13.549 3.938-23.012 16.543-23.012 30.653v21.355c0 5.522 4.478 10 10 10s10-4.478 10-10v-21.355c0-5.27 3.534-9.978 8.595-11.448l25.144-7.31h316.027l18.056 34.02c4.887 9.208 3.218 20.347-4.153 27.718-.05.05-.18.18-.431.18-.005 0-.01 0-.014 0-.261-.005-.39-.144-.438-.194-6.153-6.631-15.78-8.477-23.953-4.592l-72.674 34.543c-3.485 1.656-5.707 5.172-5.707 9.031v46.458h-260.452v-17.05c0-5.522-4.478-10-10-10s-10 4.478-10 10v21.301c0 19.032 11.955 36.354 29.75 43.102l36.358 13.791-4.865 52.243c-4.311 11.699 1.021 25.026 12.497 30.4l15.614 7.314c10.386 4.862 22.533 1.919 29.541-7.157 1.164-1.511 3.285-1.922 4.93-.954l28.88 16.967c3.321 1.952 7.466 1.822 10.66-.334l9.279-6.264 3.991 1.123v7.185c0 3.434 1.761 6.626 4.665 8.458 1.623 1.023 3.476 1.542 5.336 1.542 1.468 0 2.939-.323 4.307-.976l16.801-8.019 2.962 1.777c7.869 4.722 16.88 7.217 26.058 7.217 16.168 0 31.49-7.813 40.988-20.897l3.129-4.311c.83-1.145 2.371-1.462 3.587-.73l9.938 5.963c5.569 3.341 12.425 3.237 17.89-.268 5.467-3.506 8.419-9.693 7.705-16.148l-2.735-24.716c-.021-.182.053-.357.195-.472l23.244-18.62h4.854c5.522 0 10-4.478 10-10v-25.058c0-2.991-1.339-5.825-3.649-7.725l-51.457-42.302v-46.522l66.967-31.83c.239-.118.528-.062.711.137 3.846 4.141 9.074 6.479 14.724 6.583 5.63.073 10.961-2.038 14.957-6.035 13.624-13.624 16.709-34.214 7.676-51.235zm-340.554-44.643 9.908-42.199c.176-.75.265-1.517.265-2.286v-26.657c0-5.089 4.141-9.229 9.229-9.229 3.093 0 5.964 1.536 7.68 4.11 3.654 5.482 9.51 9.016 16.063 9.694 6.554.678 13.009-1.58 17.708-6.196l13.574-13.332c4.191-4.115 6.596-9.846 6.596-15.721v-47.326c0-1.892 1.141-2.918 1.821-3.361.68-.444 2.08-1.074 3.811-.311 14.644 6.458 26.999 16.962 35.731 30.375l18.979 29.157c2.594 3.985 7.636 5.589 12.058 3.845l61.927-24.483c10.523-4.159 22.37-2.141 30.92 5.269l19.333 16.755c6.631 5.747 10.434 14.075 10.434 22.85v32.306c0 1.635.4 3.244 1.167 4.688l17.012 32.053h-294.216zm270.625 228.298v10.468c-1.682.278-3.273.983-4.617 2.061l-25.983 20.814c-5.52 4.421-8.351 11.257-7.571 18.284l2.063 18.632-4.69-2.814c-10.176-6.107-23.1-3.468-30.064 6.133l-3.128 4.31c-5.747 7.918-15.02 12.646-24.803 12.646-5.554 0-11.006-1.51-15.768-4.367l-7.566-4.54c-2.878-1.725-6.426-1.895-9.453-.449l-7.397 3.53c-.43-4.027-3.269-7.445-7.236-8.562l-15.745-4.428c-2.829-.794-5.864-.306-8.302 1.339l-7.896 5.329-23.443-13.773c-10.307-6.057-23.588-3.486-30.894 5.977-1.24 1.605-3.39 2.125-5.227 1.267l-15.614-7.313c-2.135-1-3.067-3.555-2.08-5.694.476-1.03.771-2.133.877-3.262l5.709-61.3c.417-4.478-2.206-8.684-6.411-10.278l-43.478-16.493c-4.657-1.766-8.594-4.823-11.497-8.652h260.176z" fill="#000000" data-original="#000000" style="" class=""/><path id="XMLID_177_" d="m60.684 288.275c2.64 0 5.22-1.07 7.07-2.931 1.869-1.859 2.93-4.439 2.93-7.069 0-2.631-1.061-5.2-2.93-7.07-1.851-1.86-4.431-2.93-7.07-2.93-2.63 0-5.21 1.069-7.07 2.93-1.859 1.859-2.93 4.439-2.93 7.07 0 2.63 1.07 5.21 2.93 7.069 1.86 1.861 4.44 2.931 7.07 2.931z" fill="#000000" data-original="#000000" style="" class=""/></g></g></g></svg>
